<?xml version="1.0" encoding="UTF-8" standalone="no" ?>
<!DOCTYPE svg PUBLIC "-//W3C//DTD SVG 1.1//EN" "http://www.w3.org/Graphics/SVG/1.1/DTD/svg11.dtd">
<svg xmlns="http://www.w3.org/2000/svg" xmlns:xlink="http://www.w3.org/1999/xlink" version="1.1" width="228.38870000000003" height="228.38870000000003" xml:space="preserve">
<desc>Created with Fabric.js 1.6.0-rc.1</desc>
<defs></defs>
<g style="stroke: none; stroke-width: 1; stroke-dasharray: none; stroke-linecap: butt; stroke-linejoin: miter; stroke-miterlimit: 10; fill: none; fill-rule: nonzero; opacity: 1;" transform="translate(49.72000000000002 17.17000000000001) scale(0.47 0.47)" >
  <path d="M 35.757 143.027 H 17.878 C 8.01 143.027 0 151.036 0 160.905 v 53.635 c 0 9.869 8.01 17.878 17.878 17.878 h 17.878 c 9.869 0 17.878 -8.01 17.878 -17.878 v -53.635 C 53.635 151.036 45.626 143.027 35.757 143.027 z M 107.27 107.27 H 89.392 c -9.869 0 -17.878 8.01 -17.878 17.878 v 89.392 c 0 9.869 8.01 17.878 17.878 17.878 h 17.878 c 9.869 0 17.878 -8.01 17.878 -17.878 v -89.392 C 125.149 115.28 117.139 107.27 107.27 107.27 z M 178.784 71.513 h -17.878 c -9.869 0 -17.878 8.01 -17.878 17.878 V 214.54 c 0 9.869 8.01 17.878 17.878 17.878 h 17.878 c 9.869 0 17.878 -8.01 17.878 -17.878 V 89.392 C 196.662 79.523 188.653 71.513 178.784 71.513 z M 250.297 35.757 h -17.878 c -9.869 0 -17.878 8.01 -17.878 17.878 V 214.54 c 0 9.869 8.01 17.878 17.878 17.878 h 17.878 c 9.869 0 17.878 -8.01 17.878 -17.878 V 53.635 C 268.176 43.766 260.166 35.757 250.297 35.757 z" style="stroke: none; stroke-width: 1; stroke-dasharray: none; stroke-linecap: butt; stroke-linejoin: miter; stroke-miterlimit: 10; fill: #2394BC; fill-rule: nonzero; opacity: 1;" transform=" matrix(1 0 0 1 0 0) " stroke-linecap="round" />
</g>
  <g transform="translate(113.77 172.35) scale(1.04 1.32)">
   <text font-family="Tiza" font-size="40" font-weight="normal" style="stroke: none; stroke-width: 1; stroke-dasharray: none; stroke-linecap: butt; stroke-linejoin: miter; stroke-miterlimit: 10; fill: #2393bc; fill-rule: nonzero; opacity: 1;" ><tspan x="-66.58" y="8.98" style="stroke: none; stroke-width: 0; stroke-dasharray: none; stroke-linecap: butt; stroke-linejoin: miter; stroke-miterlimit: 4; fill: #2393bc; fill-rule: ; opacity: 1;">P</tspan><tspan x="-28.9" y="8.98" style="stroke: none; stroke-width: 0; stroke-dasharray: none; stroke-linecap: butt; stroke-linejoin: miter; stroke-miterlimit: 4; fill: #2393bc; fill-rule: ; opacity: 1;">D</tspan><tspan x="12.38" y="8.98" style="stroke: none; stroke-width: 0; stroke-dasharray: none; stroke-linecap: butt; stroke-linejoin: miter; stroke-miterlimit: 4; fill: #2393bc; fill-rule: ; opacity: 1;">M</tspan></text>
 </g>
<g style="stroke: none; stroke-width: 1; stroke-dasharray: none; stroke-linecap: butt; stroke-linejoin: miter; stroke-miterlimit: 10; fill: none; fill-rule: nonzero; opacity: 1;" transform="translate(10 10) scale(0.39 0.39)" >
  <path d="M 0 0 v 533.333 h 533.333 V 0 H 0 z M 500 500 H 33.333 V 33.333 H 500 V 500 z" style="stroke: none; stroke-width: 1; stroke-dasharray: none; stroke-linecap: butt; stroke-linejoin: miter; stroke-miterlimit: 10; fill: #2293bc; fill-rule: nonzero; opacity: 1;" transform="" stroke-linecap="round" />
</g>
</svg>